<svg width="38" height="36" viewBox="0 0 38 36" fill="none" xmlns="http://www.w3.org/2000/svg">
<path d="M17.7301 6.61965V11.6986C18.1435 11.6299 18.5674 11.5936 18.9996 11.5936C19.4319 11.5936 19.8558 11.6299 20.2692 11.6986V6.61965C21.5096 6.10996 22.385 4.87665 22.385 3.43516C22.385 1.53792 20.8693 0 18.9996 0C17.13 0 15.6143 1.53792 15.6143 3.43516C15.6143 4.87665 16.4896 6.10996 17.7301 6.61965Z" fill="#F2F2F2"/>
<path d="M6.50029 16.771L11.2603 18.3404C11.3906 17.4697 11.6608 16.6451 12.0467 15.8907L7.28485 14.3208C7.19048 12.9662 6.30504 11.7403 4.95393 11.2948C3.17576 10.7085 1.2659 11.696 0.688098 13.5003C0.110299 15.3047 1.08351 17.2426 2.86168 17.8289C4.21279 18.2743 5.63922 17.8106 6.50029 16.771Z" fill="#F2F2F2"/>
<path d="M13.4345 25.1187L10.4899 29.2311C9.19112 28.9037 7.76842 29.3793 6.93341 30.5455C5.83443 32.0804 6.16975 34.2286 7.68234 35.3438C9.19493 36.4589 11.3121 36.1187 12.411 34.5838C13.246 33.4177 13.2522 31.8978 12.544 30.7455L15.4869 26.6354C14.7229 26.2444 14.0303 25.7304 13.4345 25.1187Z" fill="#F2F2F2"/>
<path d="M27.5097 29.2311L24.5651 25.1187C23.9693 25.7303 23.2767 26.2444 22.5127 26.6354L25.4556 30.7455C24.7473 31.8978 24.7535 33.4177 25.5886 34.5838C26.6875 36.1186 28.8047 36.4589 30.3173 35.3438C31.8298 34.2286 32.1652 32.0804 31.0662 30.5455C30.2311 29.3793 28.8085 28.9036 27.5097 29.2311Z" fill="#F2F2F2"/>
<path d="M37.3122 13.5003C36.7344 11.696 34.8245 10.7086 33.0463 11.2948C31.6952 11.7402 30.8098 12.9661 30.7154 14.3208L25.9536 15.8908C26.3395 16.6451 26.6097 17.4697 26.74 18.3405L31.5001 16.7711C32.3611 17.8107 33.7876 18.2743 35.1387 17.829C36.9168 17.2426 37.89 15.3046 37.3122 13.5003Z" fill="#F2F2F2"/>
<path d="M24.2893 19.5374C24.2893 16.5778 21.9164 14.1699 18.9996 14.1699C16.0829 14.1699 13.71 16.5778 13.71 19.5374C13.71 22.4969 16.0829 24.9048 18.9996 24.9048C21.9164 24.9048 24.2893 22.497 24.2893 19.5374Z" fill="#F2F2F2"/>
</svg>
