<svg width="38" height="40" viewBox="0 0 38 40" fill="none" xmlns="http://www.w3.org/2000/svg">
<path d="M36.2006 17.7083H30.9876V9.66855C30.9876 7.25396 29.0518 5.28965 26.6722 5.28965H25.4123C24.8397 2.28045 22.2255 0 19.0953 0C15.965 0 13.3505 2.28045 12.778 5.28965H11.5181C9.13846 5.28965 7.20262 7.25396 7.20262 9.66855V17.708H1.98988C1.31519 17.708 0.768066 18.2632 0.768066 18.9478V38.2058C0.768066 38.8904 1.31519 39.4456 1.98988 39.4456H36.2006C36.8753 39.4456 37.4224 38.8904 37.4224 38.2058V18.9481C37.4224 18.2632 36.8753 17.7083 36.2006 17.7083ZM19.0953 2.47956C21.296 2.47956 23.0864 4.29634 23.0864 6.52943C23.0864 8.76252 21.296 10.5793 19.0953 10.5793C16.8945 10.5793 15.1041 8.76252 15.1041 6.52943C15.1038 4.29634 16.8943 2.47956 19.0953 2.47956ZM9.64649 9.66855C9.64649 8.62119 10.4861 7.76921 11.5183 7.76921H12.778C13.3505 10.7787 15.9647 13.0589 19.095 13.0589C22.2253 13.0589 24.8395 10.7784 25.412 7.76921H26.6717C27.7039 7.76921 28.5435 8.62143 28.5435 9.66855V17.5635H9.64649V9.66855ZM24.3693 36.966H19.8283V28.7594H24.3693V36.966ZM18.3622 36.966H13.8209V28.7594H18.3619V36.966H18.3622ZM34.9788 36.966H25.8355V28.0156C25.8355 27.6047 25.5073 27.2717 25.1024 27.2717H13.0878C12.6829 27.2717 12.3548 27.6047 12.3548 28.0156V36.966H3.21169V20.1878H34.9788V36.966Z" fill="#F2F2F2"/>
</svg>
