<svg width="26" height="40" viewBox="0 0 26 40" fill="none" xmlns="http://www.w3.org/2000/svg">
<path d="M24.3798 22.5932C23.477 22.062 22.3135 22.3735 21.7857 23.294C19.9702 26.474 16.604 28.4492 12.9985 28.4492C9.39562 28.4492 6.0292 26.474 4.21227 23.294C3.68714 22.3735 2.52502 22.062 1.61967 22.5932C0.711906 23.1263 0.403018 24.3043 0.928384 25.2247C3.09838 29.0259 6.88873 31.5695 11.1007 32.1642V35.7291H8.53709C7.48893 35.7291 6.6381 36.591 6.6381 37.6546C6.6381 38.7191 7.48901 39.581 8.53709 39.581H17.4612C18.5093 39.581 19.3589 38.7191 19.3589 37.6546C19.3589 36.591 18.5093 35.7291 17.4612 35.7291H14.8976V32.1642C19.1106 31.5695 22.8998 29.0259 25.071 25.2247C25.5963 24.3043 25.2874 23.1263 24.3798 22.5932Z" fill="#F2F2F2"/>
<path d="M12.9988 26.203C17.3966 26.203 20.9605 22.5862 20.9605 18.1248V8.49726C20.9605 5.43091 19.2767 2.7634 16.7954 1.39539L16.7967 5.76944C16.7967 6.47847 16.2308 7.05347 15.5306 7.05347C14.8331 7.05347 14.266 6.47847 14.266 5.76944L14.2647 0.530868C13.852 0.463304 13.4317 0.418945 12.9988 0.418945C12.5682 0.418945 12.148 0.463304 11.7341 0.530789L11.7353 5.76936C11.7353 6.47839 11.1693 7.05339 10.4692 7.05339C9.77175 7.05339 9.20446 6.47839 9.20446 5.76936L9.20321 1.3946C6.72308 2.76269 5.03809 5.43028 5.03809 8.49718V18.1248C5.03809 22.5862 8.60317 26.203 12.9988 26.203Z" fill="#F2F2F2"/>
</svg>
