<svg width="37" height="40" viewBox="0 0 37 40" fill="none" xmlns="http://www.w3.org/2000/svg">
<path d="M20.8359 34.452C20.8363 34.452 20.8356 34.452 20.8359 34.452C24.0668 34.452 27.4628 33.6048 30.2612 32.0002C30.62 31.7944 30.8635 31.4305 30.9192 31.0161C30.9749 30.6018 30.8364 30.1848 30.5449 29.8891L21.836 21.0509C23.1118 19.2523 22.9539 16.7228 21.3608 15.1057C19.7678 13.4893 17.2752 13.3291 15.5028 14.6238L6.7943 5.78574C6.50288 5.4899 6.09191 5.34957 5.68343 5.4061C5.27508 5.46263 4.91602 5.70965 4.71348 6.07386C0.987607 12.7664 1.66089 21.0684 6.20242 27.0496L0.907248 37.5703C0.702876 37.985 0.724768 38.4777 0.965059 38.8723C1.20535 39.2668 1.62982 39.5069 2.08694 39.5069H19.5172C20.2456 39.5069 20.836 38.9078 20.836 38.1687V34.452H20.8359ZM19.4956 16.9981C20.0535 17.5642 20.1913 18.3974 19.9095 19.0958L17.4293 16.5786C18.1174 16.2925 18.9382 16.4322 19.4956 16.9981ZM18.1985 36.8304H4.22058L8.02262 29.1133C10.8455 31.882 14.3777 33.6489 18.1985 34.2357V36.8304ZM21.045 31.7766C21.0447 31.7766 21.0442 31.7766 21.0439 31.7766C16.7406 31.7764 12.695 30.0758 9.65261 26.9883C4.97409 22.2402 3.67367 15.0634 6.22772 8.99602L27.3811 30.4633C25.3889 31.3262 23.2292 31.7766 21.045 31.7766Z" fill="#F2F2F2"/>
<path d="M27.5657 17.3227V17.3228C27.5657 17.5233 27.7222 17.6609 27.8844 17.6609C28.0469 17.6609 28.2033 17.5232 28.2033 17.3228L27.5657 17.3227ZM27.5657 17.3227C27.5655 12.6494 23.8169 8.82381 19.1764 8.82381C19.0143 8.82381 18.8579 8.68622 18.8579 8.48581V8.48563M27.5657 17.3227L18.8579 8.48563M18.8579 8.48563C18.8579 8.28492 19.0143 8.14746 19.1766 8.14746C24.1391 8.14746 28.2032 12.2504 28.2033 17.3228L18.8579 8.48563Z" fill="#F2F2F2" stroke="#F2F2F2" stroke-width="2"/>
<path d="M19.1766 1.67648H19.1766C27.7004 1.67662 34.6085 8.70847 34.6085 17.3227C34.6085 17.5232 34.765 17.6609 34.9273 17.6609C35.0897 17.6609 35.2462 17.5231 35.2462 17.3227C35.2461 8.30935 28.0226 1.00013 19.1766 1V1.67648ZM19.1766 1.67648C19.0145 1.67648 18.8579 1.53902 18.8579 1.33817C18.8579 1.13746 19.0143 1.00001 19.1765 1L19.1766 1.67648Z" fill="#F2F2F2" stroke="#F2F2F2" stroke-width="2"/>
</svg>
