<svg width="44" height="62" viewBox="0 0 44 62" fill="none" xmlns="http://www.w3.org/2000/svg">
<path d="M30 20.8291V3.875H32C33.1055 3.875 34 3.00748 34 1.9375C34 0.867516 33.1055 0 32 0H28H16H12C10.8945 0 10 0.867516 10 1.9375C10 3.00748 10.8945 3.875 12 3.875H14V20.8291C5.56637 24.004 0 31.8117 0 40.6875C0 52.4393 9.86913 62 22 62C34.1309 62 44 52.4393 44 40.6875C44 31.8117 38.4336 24.004 30 20.8291ZM16.5996 24.0503C17.4336 23.7967 18 23.0485 18 22.2017V3.875H26V22.2018C26 23.0485 26.5664 23.7969 27.4004 24.0504C33.6304 25.9468 38.1601 30.8468 39.5474 36.8126H4.45263C5.83988 30.8467 10.3696 25.9468 16.5996 24.0503ZM22 58.125C12.0743 58.125 4 50.3021 4 40.6875H40C40 50.3021 31.9258 58.125 22 58.125Z" fill="url(#paint0_radial)"/>
<g clip-path="url(#clip0)">
<path d="M25.2962 49.7496H24.2534V48.7038C24.2518 48.2524 24.0718 47.82 23.7526 47.5008C23.4334 47.1816 23.001 47.0016 22.5496 47H22.4504C21.9993 47.0016 21.5671 47.1817 21.2484 47.501C20.9297 47.8203 20.7504 48.2527 20.7496 48.7038V49.7496H19.7038C19.2527 49.7504 18.8203 49.9297 18.501 50.2484C18.1817 50.5671 18.0016 50.9993 18 51.4504V51.5496C18.0016 52.001 18.1816 52.4334 18.5008 52.7526C18.82 53.0718 19.2524 53.2518 19.7038 53.2534H20.7496V54.2962C20.748 54.5208 20.7908 54.7436 20.8755 54.9516C20.9602 55.1597 21.0851 55.349 21.2431 55.5087C21.4011 55.6684 21.5891 55.7953 21.7963 55.8822C22.0035 55.9691 22.2258 56.0142 22.4504 56.015H22.5496C23.001 56.0134 23.4334 55.8334 23.7526 55.5142C24.0718 55.195 24.2518 54.7626 24.2534 54.3112V53.2534H25.2962C25.521 53.2546 25.7438 53.2115 25.9519 53.1264C26.16 53.0414 26.3493 52.9162 26.5089 52.7579C26.6686 52.5997 26.7954 52.4115 26.8823 52.2042C26.9691 51.9968 27.0142 51.7744 27.015 51.5496V51.4504C27.0142 51.2258 26.9691 51.0035 26.8822 50.7963C26.7953 50.5891 26.6684 50.4011 26.5087 50.2431C26.349 50.0851 26.1597 49.9602 25.9516 49.8755C25.7436 49.7908 25.5208 49.748 25.2962 49.7496Z" fill="#931B80"/>
</g>
<g clip-path="url(#clip1)">
<path d="M12.8641 43.8331H12.1689V43.1359C12.1679 42.835 12.0479 42.5467 11.8351 42.3339C11.6223 42.1211 11.334 42.0011 11.0331 42H10.9669C10.6662 42.0011 10.3781 42.1211 10.1656 42.334C9.95315 42.5468 9.83358 42.8351 9.83305 43.1359V43.8331H9.13589C8.83514 43.8336 8.54684 43.9532 8.33399 44.1656C8.12114 44.3781 8.00106 44.6662 8 44.9669V45.0331C8.00106 45.334 8.12107 45.6223 8.33386 45.8351C8.54665 46.0479 8.83496 46.1679 9.13589 46.1689H9.83305V46.8641C9.832 47.0139 9.86052 47.1624 9.91698 47.3011C9.97344 47.4398 10.0567 47.566 10.1621 47.6725C10.2674 47.7789 10.3927 47.8636 10.5309 47.9215C10.669 47.9794 10.8172 48.0095 10.9669 48.01H11.0331C11.334 48.009 11.6223 47.8889 11.8351 47.6762C12.0479 47.4634 12.1679 47.1751 12.1689 46.8741V46.1689H12.8641C13.014 46.1697 13.1625 46.141 13.3012 46.0843C13.44 46.0276 13.5662 45.9441 13.6726 45.8386C13.779 45.7331 13.8636 45.6077 13.9215 45.4694C13.9794 45.3312 14.0095 45.1829 14.01 45.0331V44.9669C14.0095 44.8172 13.9794 44.669 13.9215 44.5309C13.8636 44.3927 13.7789 44.2674 13.6725 44.1621C13.566 44.0567 13.4398 43.9734 13.3011 43.917C13.1624 43.8605 13.0139 43.832 12.8641 43.8331Z" fill="#931B80"/>
</g>
<g clip-path="url(#clip2)">
<path d="M33.0534 44.5275H32.4741V43.9466C32.4732 43.6958 32.3732 43.4555 32.1959 43.2782C32.0186 43.1009 31.7783 43.0009 31.5275 43H31.4725C31.2218 43.0009 30.9817 43.1009 30.8047 43.2783C30.6276 43.4557 30.528 43.696 30.5275 43.9466V44.5275H29.9466C29.696 44.528 29.4557 44.6276 29.2783 44.8047C29.1009 44.9817 29.0009 45.2218 29 45.4725V45.5275C29.0009 45.7783 29.1009 46.0186 29.2782 46.1959C29.4555 46.3732 29.6958 46.4732 29.9466 46.4741H30.5275V47.0534C30.5267 47.1782 30.5504 47.302 30.5975 47.4176C30.6445 47.5332 30.7139 47.6384 30.8017 47.7271C30.8895 47.8158 30.994 47.8863 31.1091 47.9346C31.2242 47.9828 31.3476 48.0079 31.4725 48.0083H31.5275C31.7783 48.0075 32.0186 47.9075 32.1959 47.7301C32.3732 47.5528 32.4732 47.3125 32.4741 47.0618V46.4741H33.0534C33.1783 46.4748 33.3021 46.4508 33.4177 46.4036C33.5333 46.3563 33.6385 46.2868 33.7272 46.1989C33.8159 46.1109 33.8864 46.0064 33.9346 45.8912C33.9829 45.776 34.0079 45.6524 34.0083 45.5275V45.4725C34.0079 45.3476 33.9828 45.2242 33.9346 45.1091C33.8863 44.994 33.8158 44.8895 33.7271 44.8017C33.6384 44.7139 33.5332 44.6445 33.4176 44.5975C33.302 44.5504 33.1782 44.5267 33.0534 44.5275Z" fill="#931B80"/>
</g>
<defs>
<radialGradient id="paint0_radial" cx="0" cy="0" r="1" gradientUnits="userSpaceOnUse" gradientTransform="translate(22 24.5) rotate(90) scale(37.5 26.6129)">
<stop stop-color="#931B80"/>
<stop offset="1" stop-color="#662482"/>
</radialGradient>
<clipPath id="clip0">
<rect width="9" height="9" fill="white" transform="translate(18 47)"/>
</clipPath>
<clipPath id="clip1">
<rect width="6" height="6" fill="white" transform="translate(8 42)"/>
</clipPath>
<clipPath id="clip2">
<rect width="5" height="5" fill="white" transform="translate(29 43)"/>
</clipPath>
</defs>
</svg>
