<svg width="28" height="45" viewBox="0 0 28 45" fill="none" xmlns="http://www.w3.org/2000/svg">
<path d="M11.0262 14.4511H12.8709V16.3229C12.8709 17.1499 13.5316 17.8205 14.3467 17.8205C15.1619 17.8205 15.8226 17.15 15.8226 16.3229V14.4511H17.6673C18.4823 14.4511 19.1432 13.7806 19.1432 12.9535C19.1432 12.1265 18.4824 11.4559 17.6673 11.4559H15.8226V9.58425C15.8226 8.75728 15.1619 8.08667 14.3467 8.08667C13.5316 8.08667 12.8709 8.75712 12.8709 9.58425V11.4561H11.0262C10.2112 11.4561 9.55029 12.1265 9.55029 12.9536C9.55044 13.7806 10.2112 14.4511 11.0262 14.4511Z" fill="#F2F2F2"/>
<path d="M23.7552 0H4.93886C2.59932 0 0.695801 1.93136 0.695801 4.3053V40.6947C0.695801 43.0686 2.59917 45 4.93871 45H23.7552C26.0947 45 27.9981 43.0686 27.9981 40.6947V4.3053C27.9982 1.93136 26.0947 0 23.7552 0ZM3.6474 28.3429H6.86209C7.44608 28.3429 7.97512 27.9935 8.21149 27.4515L8.73321 26.2558L11.1264 31.7402C11.3627 32.282 11.8918 32.6314 12.4757 32.6314C13.0597 32.6314 13.5888 32.282 13.8251 31.7402L14.6067 29.9489L14.9889 30.5327C15.2767 30.9724 15.7714 31.2253 16.2906 31.2C16.81 31.1741 17.2777 30.8729 17.5217 30.407L19.8402 25.9789L20.4827 27.4514C20.7191 27.9933 21.2481 28.3427 21.8321 28.3427H25.0468V34.5921H3.6474V28.3429ZM4.93886 2.995H23.7553C24.4674 2.995 25.0466 3.58273 25.0466 4.3053V25.3479H22.7925L21.3102 21.9506C21.0816 21.4265 20.5781 21.0808 20.0137 21.0603C19.4488 21.0361 18.9226 21.348 18.6576 21.8541L16.0772 26.7821L15.5764 26.017C15.2783 25.5615 14.7587 25.3068 14.2222 25.3533C13.6852 25.3995 13.2158 25.7391 12.9976 26.2391L12.4757 27.435L10.0826 21.9505C9.84624 21.4086 9.3172 21.0592 8.73321 21.0592C8.14922 21.0592 7.62018 21.4086 7.38381 21.9506L5.90152 25.3479H3.6474V4.3053C3.6474 3.58273 4.22675 2.995 4.93886 2.995ZM23.7552 42.005H4.93886C4.22675 42.005 3.64754 41.4173 3.64754 40.6947V37.5874H25.0466V40.6947C25.0466 41.4173 24.4673 42.005 23.7552 42.005Z" fill="#F2F2F2"/>
<path d="M15.5648 38.3359H13.1297C12.3147 38.3359 11.6538 39.0064 11.6538 39.8335C11.6538 40.6606 12.3145 41.3311 13.1297 41.3311H15.5648C16.3798 41.3311 17.0406 40.6606 17.0406 39.8335C17.0406 39.0064 16.3798 38.3359 15.5648 38.3359Z" fill="#F2F2F2"/>
</svg>
