<svg width="42" height="42" viewBox="0 0 42 42" fill="none" xmlns="http://www.w3.org/2000/svg">
<g clip-path="url(#clip0)">
<path d="M15.6632 10.5242L15.3628 8.6303C15.3063 8.27394 15.05 7.98377 14.7069 7.88788L12.8842 7.37846L11.6224 5.94996C11.3849 5.68109 11.0148 5.57773 10.6751 5.68515L8.87039 6.25653L7.0476 5.74711C6.70458 5.65122 6.33793 5.7673 6.10976 6.044L4.89587 7.51464L3.09116 8.08593C2.75159 8.19344 2.50507 8.49218 2.46037 8.8503L2.22284 10.7535L1.00895 12.2242C0.78051 12.5009 0.73226 12.8874 0.885461 13.2133L1.69954 14.9447L1.46201 16.8478C1.41731 17.2059 1.58268 17.5576 1.88509 17.7476L3.49252 18.7575L4.3066 20.4889C4.45762 20.8101 4.77693 21.0139 5.12658 21.0139C5.13176 21.0139 5.13685 21.0139 5.14194 21.0138L7.03233 20.9816L8.63959 21.9915C8.78634 22.0837 8.95217 22.1296 9.118 22.1296C9.29392 22.1296 9.46956 22.0779 9.62204 21.9748L11.1951 20.9107L13.0855 20.8784C13.4413 20.8723 13.7608 20.6562 13.903 20.3253L14.6593 18.5672L16.2324 17.503C16.5285 17.3028 16.682 16.9457 16.6255 16.5893L16.325 14.6952L17.0814 12.9371C17.2237 12.6063 17.1627 12.2215 16.9252 11.9528L15.6632 10.5242ZM14.4883 14.7211L14.7384 16.2973L13.4293 17.1829C13.2842 17.2809 13.1701 17.4192 13.1005 17.5812L12.4711 19.0444L10.8979 19.0712C10.7237 19.0742 10.5541 19.1279 10.4091 19.2259L9.10001 20.1115L7.76227 19.2711C7.61842 19.1807 7.45286 19.133 7.28385 19.133C7.27876 19.133 7.27367 19.133 7.26859 19.1331L5.69541 19.1599L5.01791 17.719C4.94294 17.5595 4.82427 17.4252 4.67615 17.3322L3.33832 16.4917L3.53605 14.9079C3.55786 14.7326 3.52969 14.5544 3.45463 14.3949L2.77713 12.954L3.7873 11.73C3.89915 11.5945 3.9703 11.4292 3.9922 11.2539L4.18993 9.66998L5.69186 9.19449C5.85815 9.14185 6.00599 9.0418 6.11785 8.90636L7.12811 7.68236L8.64504 8.1064C8.81296 8.15333 8.9906 8.15029 9.15698 8.09764L10.6589 7.62215L11.7092 8.81102C11.8254 8.94259 11.9765 9.03756 12.1445 9.08449L13.6613 9.50844L13.9114 11.0848C13.9391 11.2593 14.0156 11.422 14.1319 11.5536L15.1822 12.7425L14.5527 14.2056C14.483 14.3676 14.4606 14.5465 14.4883 14.7211Z" fill="#F2F2F2"/>
<path d="M41.1066 21.6499L39.1076 19.7035L38.4631 16.9695C38.3803 16.6183 38.1032 16.3487 37.7541 16.2792L35.0356 15.7384L33.0366 13.792C32.7798 13.542 32.403 13.467 32.0724 13.6002L29.4972 14.6366L26.7786 14.0958C26.4298 14.0263 26.0725 14.17 25.8653 14.4633L24.251 16.748L21.6759 17.7844C21.3451 17.9175 21.1214 18.2341 21.1033 18.5947L20.9627 21.4022L19.3484 23.6868C19.1411 23.9802 19.1216 24.3693 19.2985 24.6825L20.6761 27.1216L20.5353 29.9291C20.5173 30.2896 20.7081 30.6276 21.0239 30.794L23.4823 32.0902L24.8598 34.5292C25.0367 34.8423 25.3771 35.0221 25.7317 34.9888L28.4903 34.7306L30.9487 36.0267C31.0808 36.0963 31.2244 36.1305 31.3676 36.1305C31.5664 36.1305 31.764 36.0643 31.927 35.935L34.1101 34.2043L36.8688 33.9461C37.223 33.913 37.5257 33.6731 37.6431 33.3323L38.5575 30.6787L40.7406 28.948C41.0209 28.7258 41.1476 28.358 41.0649 28.0069L40.4203 25.273L41.3347 22.6194C41.4526 22.2787 41.3633 21.8997 41.1066 21.6499ZM38.5912 25.4388L39.1619 27.8598L37.2287 29.3923C37.0914 29.5011 36.9879 29.6477 36.9304 29.8146L36.1207 32.1644L33.6778 32.393C33.5043 32.4092 33.3391 32.4757 33.2019 32.5845L31.2688 34.117L29.0918 32.9693C28.962 32.9009 28.8183 32.8655 28.6729 32.8655C28.6451 32.8655 28.6173 32.8668 28.5894 32.8693L26.1465 33.098L24.9266 30.9382C24.84 30.7849 24.7118 30.6601 24.5573 30.5786L22.3804 29.4308L22.5049 26.9447C22.5138 26.7682 22.4725 26.5928 22.3857 26.4395L21.1659 24.2797L22.5953 22.2567C22.6968 22.113 22.7555 21.9428 22.7643 21.7662L22.8889 19.2802L25.1692 18.3624C25.3311 18.2972 25.4711 18.1862 25.5726 18.0425L27.002 16.0194L29.4095 16.4983C29.5805 16.5323 29.7573 16.5157 29.9193 16.4505L32.1996 15.5327L33.9697 17.2563C34.0954 17.3787 34.2531 17.4618 34.424 17.4958L36.8314 17.9747L37.4021 20.3958C37.4426 20.5677 37.5311 20.7242 37.6567 20.8466L39.4268 22.5702L38.617 24.92C38.5597 25.0867 38.5506 25.2668 38.5912 25.4388Z" fill="#F2F2F2"/>
<path d="M26.8099 22.8446C27.6768 22.8446 28.3795 22.1315 28.3795 21.2519C28.3795 20.3723 27.6768 19.6592 26.8099 19.6592C25.943 19.6592 25.2402 20.3723 25.2402 21.2519C25.2402 22.1315 25.943 22.8446 26.8099 22.8446Z" fill="#F2F2F2"/>
<path d="M29.0521 30.1256C29.9189 30.1256 30.6217 29.4125 30.6217 28.5329C30.6217 27.6533 29.9189 26.9402 29.0521 26.9402C28.1852 26.9402 27.4824 27.6533 27.4824 28.5329C27.4824 29.4125 28.1852 30.1256 29.0521 30.1256Z" fill="#F2F2F2"/>
<path d="M12.1318 27.0295C10.3691 27.0295 8.93506 28.4847 8.93506 30.2733C8.93506 32.0618 10.369 33.517 12.1318 33.517C13.8943 33.517 15.3284 32.0618 15.3284 30.2733C15.3284 28.4847 13.8943 27.0295 12.1318 27.0295ZM12.1318 31.6728C11.3712 31.6728 10.7524 31.0449 10.7524 30.2732C10.7524 29.5014 11.3712 28.8735 12.1318 28.8735C12.8922 28.8735 13.511 29.5014 13.511 30.2732C13.511 31.0449 12.8922 31.6728 12.1318 31.6728Z" fill="#F2F2F2"/>
<path d="M33.9852 25.5748C34.852 25.5748 35.5548 24.8618 35.5548 23.9821C35.5548 23.1025 34.852 22.3894 33.9852 22.3894C33.1183 22.3894 32.4155 23.1025 32.4155 23.9821C32.4155 24.8618 33.1183 25.5748 33.9852 25.5748Z" fill="#F2F2F2"/>
<path d="M8.17364 15.1744C9.04052 15.1744 9.74327 14.4614 9.74327 13.5817C9.74327 12.7021 9.04052 11.989 8.17364 11.989C7.30675 11.989 6.604 12.7021 6.604 13.5817C6.604 14.4614 7.30675 15.1744 8.17364 15.1744Z" fill="#F2F2F2"/>
<path d="M20.7467 12.5527C21.168 12.3691 21.4301 12.4672 21.9828 12.7063C22.3939 12.8843 22.9028 13.1046 23.5211 13.1046C23.8632 13.1046 24.2386 13.0372 24.6493 12.858C25.803 12.3548 26.1342 11.4507 26.376 10.7905C26.5854 10.2189 26.6958 9.9584 27.1168 9.77473C27.538 9.59115 27.8001 9.68916 28.3529 9.92843C28.9912 10.2048 29.8657 10.5832 31.0195 10.0801C32.1732 9.57695 32.5045 8.67281 32.7463 8.01263C32.9558 7.44097 33.0662 7.1805 33.4873 6.99674C33.9089 6.81289 34.1708 6.91118 34.7236 7.15035C35.3621 7.42668 36.2366 7.80499 37.3902 7.30184C37.8513 7.10075 38.0645 6.5585 37.8663 6.09066C37.6681 5.62282 37.1337 5.4067 36.6727 5.60761C36.2511 5.79137 35.9893 5.69326 35.4364 5.454C34.7979 5.17766 33.9234 4.79935 32.7698 5.30251C31.616 5.80566 31.2847 6.7098 31.0428 7.37007C30.8334 7.94173 30.723 8.2022 30.3019 8.38587C29.8808 8.56954 29.6187 8.47153 29.0658 8.23217C28.4273 7.95593 27.5528 7.57753 26.3993 8.0805C25.2455 8.58365 24.9143 9.48779 24.6725 10.148C24.4631 10.7196 24.3528 10.98 23.9318 11.1637C23.5107 11.3473 23.2485 11.2493 22.6957 11.01C22.0573 10.7335 21.1828 10.3552 20.0291 10.8583C19.5681 11.0594 19.3549 11.6016 19.5531 12.0695C19.7514 12.5375 20.2857 12.7539 20.7467 12.5527Z" fill="#F2F2F2"/>
</g>
<defs>
<clipPath id="clip0">
<rect width="40.5891" height="41.186" fill="white" transform="translate(0.796875)"/>
</clipPath>
</defs>
</svg>
