<svg width="36" height="36" viewBox="0 0 36 36" fill="none" xmlns="http://www.w3.org/2000/svg">
<path d="M33.9195 1.78555C32.7848 0.634083 31.276 0 29.6712 0C28.0664 0 26.5577 0.634083 25.4229 1.78555L5.89061 21.6052C5.00454 22.5044 4.51652 23.6999 4.51652 24.9715L4.51664 29.9559L1.09372 33.429C0.640634 33.8887 0.640634 34.6342 1.09372 35.0941C1.32033 35.3239 1.61725 35.4389 1.91417 35.4389C2.2111 35.4389 2.50802 35.3239 2.73463 35.0941L6.15743 31.621H11.0696C12.3225 31.621 13.5008 31.1258 14.3871 30.2267L33.9194 10.407C35.0542 9.25541 35.6792 7.72462 35.6792 6.09633C35.6792 4.46781 35.0542 2.93702 33.9195 1.78555ZM12.7463 28.5615C12.2984 29.0159 11.7029 29.2662 11.0697 29.2662H6.83724L6.83712 24.9715C6.83712 24.3288 7.08383 23.7248 7.53163 23.2704L24.7295 5.8195L29.9441 11.1108L12.7463 28.5615ZM32.2785 8.74185L31.585 9.44561L26.3704 4.15435L27.0639 3.45058C28.5016 1.99174 30.8408 1.99174 32.2785 3.45058C33.7162 4.90931 33.7162 7.28312 32.2785 8.74185Z" fill="#F2F2F2"/>
<path d="M24.6723 11.1692C24.2191 10.7096 23.4846 10.7096 23.0313 11.1692L17.8896 16.3865C17.4365 16.8462 17.4365 17.5918 17.8896 18.0516C18.1162 18.2814 18.4131 18.3965 18.7101 18.3965C19.007 18.3965 19.3039 18.2814 19.5305 18.0516L24.6722 12.8343C25.1255 12.3746 25.1255 11.6291 24.6723 11.1692Z" fill="#F2F2F2"/>
</svg>
