<svg width="32" height="36" viewBox="0 0 32 36" fill="none" xmlns="http://www.w3.org/2000/svg">
<path d="M11.0369 5.34273C12.2369 4.37651 14.2503 3.72722 16.047 3.72722C17.8603 3.72722 19.8887 4.38831 21.0946 5.3723C21.4339 5.64923 21.8405 5.78378 22.2444 5.78378C22.7816 5.78378 23.3141 5.54574 23.6769 5.08791C24.3124 4.28581 24.1869 3.11273 23.3966 2.46767C21.5311 0.945597 18.715 0 16.047 0C13.4044 0 10.6098 0.928452 8.7536 2.42307C7.95908 3.06278 7.82611 4.23512 8.45656 5.04132C9.08688 5.84739 10.2422 5.98244 11.0369 5.34273Z" fill="#F2F2F2"/>
<path d="M16.0563 7.02856C14.6498 7.02856 12.4724 7.45918 10.9652 8.67252C10.1705 9.31223 10.0376 10.4846 10.6679 11.2908C11.2984 12.0971 12.4535 12.232 13.2482 11.5924C13.8309 11.1233 15.0643 10.7558 16.0563 10.7558C17.0566 10.7558 18.2983 11.13 18.8835 11.6076C19.2228 11.8845 19.6295 12.0192 20.0336 12.0192C20.5706 12.0192 21.103 11.7813 21.4658 11.3236C22.1015 10.5216 21.9763 9.34864 21.186 8.70333C19.9395 7.68605 17.9261 7.02856 16.0563 7.02856Z" fill="#F2F2F2"/>
<path d="M31.4571 15.1125C31.4571 14.4263 30.9089 13.8701 30.2327 13.8701H1.94901C1.27277 13.8701 0.724609 14.4263 0.724609 15.1125V21.573C0.724609 22.2592 1.27277 22.8155 1.94901 22.8155H30.2327C30.9089 22.8155 31.4571 22.2592 31.4571 21.573V15.1125ZM26.0838 20.4844C24.9719 20.4844 24.0707 19.5698 24.0707 18.4417C24.0707 17.3135 24.9721 16.3988 26.0838 16.3988C27.1956 16.3988 28.0971 17.3135 28.0971 18.4417C28.0971 19.5698 27.1957 20.4844 26.0838 20.4844Z" fill="#F2F2F2"/>
<path d="M31.4571 28.0337C31.4571 27.3475 30.9089 26.7913 30.2327 26.7913H1.94901C1.27277 26.7913 0.724609 27.3475 0.724609 28.0337V34.4942C0.724609 35.1804 1.27277 35.7366 1.94901 35.7366H30.2327C30.9089 35.7366 31.4571 35.1804 31.4571 34.4942V28.0337ZM26.0838 33.4482C24.9719 33.4482 24.0707 32.5335 24.0707 31.4053C24.0707 30.2771 24.9721 29.3625 26.0838 29.3625C27.1956 29.3625 28.0971 30.2772 28.0971 31.4053C28.0971 32.5337 27.1957 33.4482 26.0838 33.4482Z" fill="#F2F2F2"/>
</svg>
