<svg width="55" height="55" viewBox="0 0 55 55" fill="none" xmlns="http://www.w3.org/2000/svg">
<path d="M30.0643 22.4661C30.0643 20.4443 28.425 18.8059 26.4029 18.8059C24.3815 18.8059 22.7422 20.4446 22.7422 22.4661C22.7422 24.4887 24.3817 26.1274 26.4029 26.1274C28.425 26.1274 30.0643 24.4887 30.0643 22.4661Z" fill="#931B80"/>
<path d="M20.9748 33.998C22.5924 33.998 23.9037 32.6867 23.9037 31.0692C23.9037 29.4516 22.5924 28.1403 20.9748 28.1403C19.3572 28.1403 18.0459 29.4516 18.0459 31.0692C18.0459 32.6867 19.3572 33.998 20.9748 33.998Z" fill="#931B80"/>
<path d="M31.8312 26.6757C29.4038 26.6757 27.438 28.6418 27.438 31.0686C27.438 33.4956 29.4038 35.4621 31.8312 35.4621C34.2568 35.4621 36.2238 33.4956 36.2238 31.0686C36.2238 28.6421 34.2568 26.6757 31.8312 26.6757Z" fill="#931B80"/>
<path d="M52.1067 20.583C50.9128 20.583 49.9449 21.5509 49.9449 22.7448V24.9727H46.2138C45.7998 21.2955 44.343 17.9311 42.1469 15.1795L44.7921 12.5339L46.3674 14.1092C46.7894 14.5315 47.3428 14.7425 47.896 14.7425C48.4494 14.7425 49.0026 14.5315 49.4246 14.1092C50.2688 13.2649 50.2688 11.8963 49.4246 11.052L43.2168 4.84402C42.3726 3.99945 41.0037 3.99974 40.1597 4.84402C39.3154 5.6883 39.3154 7.0569 40.1597 7.90147L41.7347 9.47646L39.0891 12.1223C36.3375 9.92671 32.9733 8.47019 29.2964 8.05626V4.32373H31.5243C32.7182 4.32373 33.6862 3.35579 33.6862 2.16187C33.6862 0.967939 32.7182 0 31.5243 0H22.7446C21.5506 0 20.5827 0.967939 20.5827 2.16187C20.5827 3.35579 21.5506 4.32373 22.7446 4.32373H24.9724V8.05569C21.2952 8.4699 17.9311 9.92642 15.1792 12.1223L12.5333 9.47589L14.1086 7.90061C14.9529 7.05633 14.9529 5.68743 14.1086 4.84315C13.2643 3.99859 11.8954 3.99887 11.0515 4.84315L4.84373 11.0517C3.99945 11.896 3.99945 13.2649 4.84373 14.1089C5.26573 14.5312 5.81916 14.7422 6.37231 14.7422C6.92546 14.7422 7.4789 14.5312 7.9009 14.1089L9.47618 12.5336L12.122 15.1798C9.92613 17.9314 8.46961 21.2955 8.05569 24.9724H4.32402V22.7454C4.32402 21.5515 3.35637 20.5835 2.16215 20.5835C0.968227 20.5835 0.000288249 21.5515 0.000288249 22.7454L0 31.524C0 32.718 0.967939 33.6859 2.16187 33.6859C3.35579 33.6859 4.32373 32.718 4.32373 31.524V29.2962H8.05569C8.4699 32.9731 9.92642 36.3372 12.122 39.0888L9.47618 41.735L7.9009 40.1597C7.05662 39.3151 5.68772 39.3154 4.84344 40.1597C3.99916 41.004 3.99916 42.3726 4.84344 43.2168L11.0512 49.4249C11.4732 49.8471 12.0266 50.0581 12.5797 50.0581C13.1329 50.0581 13.6863 49.8471 14.1083 49.4249C14.9526 48.5806 14.9526 47.212 14.1083 46.3677L12.5331 44.7924L15.1792 42.146C17.9308 44.3416 21.2949 45.7981 24.9721 46.212V49.9443H22.7443C21.5503 49.9443 20.5824 50.9122 20.5824 52.1061C20.5824 53.3001 21.5503 54.268 22.7443 54.268H31.5232C32.7171 54.268 33.685 53.3001 33.685 52.1061C33.685 50.9122 32.7171 49.9443 31.5232 49.9443H29.2962V46.212C32.9731 45.7981 36.3372 44.3419 39.0888 42.1463L41.7344 44.7921L40.1594 46.3671C39.3151 47.2114 39.3151 48.58 40.1594 49.4246C40.5814 49.8468 41.1348 50.0578 41.688 50.0578C42.2411 50.0578 42.7946 49.8468 43.2165 49.4246L49.4243 43.2171C50.2686 42.3728 50.2686 41.0042 49.4243 40.16C48.58 39.3154 47.2111 39.3157 46.3671 40.16L44.7918 41.7352L42.1463 39.0894C44.3424 36.3378 45.799 32.9736 46.2132 29.2964H49.944V31.5237C49.944 32.7177 50.9116 33.6856 52.1059 33.6856C53.2998 33.6856 54.2677 32.7177 54.2677 31.5237L54.268 22.7451C54.2686 21.5509 53.3006 20.583 52.1067 20.583ZM42.0105 27.3052C41.965 31.3127 40.3292 34.9444 37.7032 37.5966C37.6848 37.6139 37.6655 37.6291 37.6473 37.647C37.6294 37.6649 37.6142 37.6842 37.5969 37.7026C34.9421 40.3306 31.3061 41.9667 27.2943 42.0094C27.2412 42.0056 27.1885 42.0013 27.1346 42.0013C27.0807 42.0013 27.0279 42.0056 26.9752 42.0094C18.8699 41.9232 12.2984 35.3269 12.2566 27.2118C12.2575 27.1856 12.2607 27.1599 12.2607 27.1337C12.2607 27.1075 12.2578 27.0818 12.2566 27.0559C12.299 18.9111 18.918 12.2947 27.0642 12.2563C27.0879 12.2572 27.1109 12.2598 27.1346 12.2598C27.1582 12.2598 27.1816 12.2569 27.2052 12.2563C31.2522 12.2754 34.9219 13.9175 37.5963 16.5648C37.6139 16.5835 37.6291 16.6031 37.6473 16.6213C37.6655 16.6394 37.6853 16.655 37.7038 16.6726C40.3294 19.3248 41.965 22.9561 42.0102 26.9636C42.0059 27.0201 42.0016 27.0769 42.0016 27.1343C42.0016 27.1917 42.0062 27.2487 42.0105 27.3052Z" fill="url(#paint0_radial)"/>
<defs>
<radialGradient id="paint0_radial" cx="0" cy="0" r="1" gradientUnits="userSpaceOnUse" gradientTransform="translate(27.134 27.134) rotate(90) scale(27.134)">
<stop stop-color="#931B80"/>
<stop offset="1" stop-color="#662482"/>
</radialGradient>
</defs>
</svg>
